<svg width="450" height="460" viewBox="0 0 450 460" fill="none" xmlns="http://www.w3.org/2000/svg">
<path d="M40.1871 60.4982L42.7532 56.1702C64.4223 19.5878 103.589 -2.46337 144.889 0.219988C150.216 0.551869 155.511 1.29332 160.729 2.43809C198.281 10.6721 230.953 39.7671 244.491 77.0312C252.454 98.9417 254.682 124.174 269.835 141.572C289.509 164.208 322.91 164.922 352.267 163.981C381.624 163.039 415.046 163.84 434.635 186.573C446.895 200.801 450.792 221.045 449.809 240.099C447.191 290.564 412.849 335.694 369.226 358.124C325.603 380.554 274.186 382.555 226.413 372.688C159.505 358.871 95.8594 320.914 57.6111 262.324C19.3628 203.733 9.5842 123.774 40.1871 60.4982Z" fill="white"/>
<path d="M53.0914 382.48C67.7184 382.48 79.5759 370.33 79.5759 355.343C79.5759 340.356 67.7184 328.207 53.0914 328.207C38.4644 328.207 26.6069 340.356 26.6069 355.343C26.6069 370.33 38.4644 382.48 53.0914 382.48Z" fill="white"/>
<path d="M79.9983 400.571C81.4206 400.922 82.759 401.564 83.9331 402.458C85.1072 403.352 86.0928 404.481 86.8306 405.775C88.2902 408.381 89.1532 411.293 89.3544 414.29C89.893 420.047 87.9394 426.398 85.5106 431.602C80.0299 428.465 77.485 421.486 76.4079 417.861C74.7077 412.137 75.0245 400.722 79.9983 400.549" fill="#455A64"/>
<path d="M92.7971 439.739C92.1427 438.206 91.8957 436.522 92.0811 434.86C92.2666 433.197 92.8779 431.614 93.8531 430.272C94.8567 428.95 96.108 427.847 97.5333 427.028C98.9586 426.208 100.529 425.689 102.153 425.5C102.882 425.338 103.636 425.339 104.365 425.501C105.094 425.664 105.78 425.984 106.377 426.441C106.863 426.97 107.201 427.622 107.357 428.33C107.513 429.038 107.481 429.775 107.264 430.466C106.816 431.843 106.022 433.074 104.962 434.037C101.488 437.478 97.5069 440.15 92.6915 439.739" fill="#455A64"/>
<path d="M90.4316 458.274C90.3692 457.88 90.3445 457.482 90.3577 457.084C90.3577 456.24 90.3577 455.147 90.2732 453.838C90.0581 450.25 90.4147 446.65 91.3292 443.18C92.311 439.7 94.1811 436.551 96.7465 434.059C97.532 433.318 98.4005 432.675 99.3337 432.143C99.5827 431.998 99.8402 431.868 100.105 431.754C100.192 431.699 100.289 431.663 100.39 431.646C99.1597 432.403 98.0065 433.284 96.9471 434.275C94.4684 436.775 92.6514 439.881 91.6671 443.299C90.7585 446.731 90.3562 450.283 90.4739 453.838C90.4739 455.212 90.4739 456.315 90.4739 457.084C90.4882 457.481 90.4741 457.879 90.4316 458.274Z" fill="#263238"/>
<path d="M80.5053 409.292C80.5728 409.449 80.6259 409.612 80.6637 409.779C80.7693 410.146 80.896 410.623 81.0438 411.207C81.3712 412.451 81.8253 414.258 82.3533 416.498C83.4093 420.977 84.8243 427.188 86.2182 434.069C87.6121 440.951 88.7315 447.227 89.4813 451.771C89.8509 454.043 90.136 455.883 90.3261 457.181C90.4105 457.787 90.4739 458.263 90.5267 458.653C90.5435 458.825 90.5435 458.999 90.5267 459.172C90.4721 459.006 90.4297 458.836 90.4 458.663C90.3261 458.285 90.2416 457.809 90.1254 457.203C89.8825 455.893 89.5552 454.065 89.1539 451.847C88.3302 447.313 87.1686 441.027 85.7747 434.178C84.3808 427.329 83.0291 421.085 82.0365 416.595C81.5401 414.431 81.1389 412.581 80.8537 411.272C80.727 410.677 80.6214 410.19 80.5475 409.822C80.5134 409.647 80.4992 409.469 80.5053 409.292Z" fill="#263238"/>
<path d="M85.5107 444.9C84.2407 441.622 82.2284 438.699 79.6396 436.374C77.0508 434.049 73.9597 432.387 70.6211 431.527C68.9209 431.105 66.8089 431.051 65.774 432.501C64.7392 433.95 65.4678 436.006 66.4288 437.51C68.4832 440.603 71.3829 443.005 74.7643 444.416C78.1457 445.827 81.8583 446.183 85.4368 445.441" fill="#455A64"/>
<path d="M72.4797 436.645C72.8373 436.69 73.1905 436.766 73.5357 436.872C73.9537 436.972 74.3661 437.094 74.7712 437.24C75.2359 437.413 75.8273 437.564 76.3658 437.835C76.9044 438.105 77.5908 438.365 78.2349 438.733C78.9421 439.1 79.6263 439.512 80.2836 439.966C81.7976 440.996 83.1902 442.201 84.4337 443.559C85.6529 444.935 86.7157 446.449 87.6017 448.071C87.992 448.772 88.3445 449.494 88.6577 450.235C88.9281 450.885 89.1643 451.549 89.3652 452.225C89.5764 452.831 89.6609 453.416 89.7876 453.913C89.8887 454.341 89.9663 454.775 90.0199 455.212C90.0846 455.569 90.1199 455.931 90.1255 456.294C90.0305 456.294 89.8615 454.714 89.0695 452.279C88.8604 451.621 88.6172 450.975 88.3408 450.343C88.0277 449.602 87.6752 448.88 87.2848 448.179C86.3891 446.593 85.3268 445.113 84.1168 443.764C82.8897 442.436 81.5307 441.243 80.0618 440.204C79.3649 439.75 78.7101 439.306 78.0554 438.971C77.4638 438.626 76.8539 438.315 76.2285 438.04C73.9793 437.088 72.4481 436.731 72.4797 436.645Z" fill="#263238"/>
<path d="M90.2203 278.965L45.7416 274.247L26.9025 230.437L12.2664 234.343C12.2664 234.343 23.0798 280.642 35.1816 287.816C47.2833 294.989 88.6257 296.277 88.6257 296.277L90.2203 278.965Z" fill="#449BA7"/>
<path d="M113.866 301.248C121.103 292.904 120.369 280.129 112.226 272.713C104.083 265.298 91.6149 266.05 84.3776 274.394C77.1402 282.737 77.8744 295.512 86.0175 302.928C94.1605 310.343 106.629 309.591 113.866 301.248Z" fill="#263238"/>
<path d="M99.1225 308.049C94.5514 308.049 90.1218 306.425 86.5883 303.454C83.0548 300.482 80.6362 296.348 79.7444 291.754C78.8526 287.16 79.543 282.392 81.6978 278.262C83.8526 274.131 87.3385 270.894 91.5616 269.101C95.7847 267.309 100.484 267.073 104.858 268.432C109.232 269.792 113.011 272.663 115.551 276.558C118.09 280.452 119.233 285.128 118.785 289.789C118.337 294.45 116.326 298.808 113.093 302.12C111.263 304.005 109.086 305.5 106.687 306.518C104.289 307.536 101.718 308.056 99.1225 308.049ZM99.1225 267.625C94.5637 267.621 90.1443 269.236 86.6173 272.195C83.0903 275.155 80.6739 279.276 79.7799 283.856C78.8858 288.436 79.5694 293.192 81.7141 297.314C83.8589 301.436 87.3321 304.668 91.542 306.46C95.7519 308.253 100.438 308.494 104.802 307.143C109.166 305.791 112.937 302.932 115.474 299.051C118.011 295.17 119.156 290.508 118.714 285.859C118.272 281.21 116.271 276.861 113.051 273.555C111.227 271.672 109.057 270.178 106.666 269.161C104.276 268.143 101.711 267.621 99.1225 267.625Z" fill="#263238"/>
<path d="M41.7544 291.277C49.6995 289.322 54.5939 281.138 52.6865 272.998C50.779 264.857 42.792 259.842 34.847 261.797C26.9019 263.751 22.0075 271.935 23.9149 280.075C25.8223 288.216 33.8094 293.231 41.7544 291.277Z" fill="#263238"/>
<path d="M27.0663 233.979C31.7882 229.141 31.7882 221.297 27.0663 216.459C22.3444 211.62 14.6887 211.62 9.96676 216.459C5.24485 221.297 5.24485 229.141 9.96676 233.979C14.6887 238.817 22.3444 238.817 27.0663 233.979Z" fill="#263238"/>
<path d="M37.3622 218.514L27.4062 227.129L23.8156 222.772L33.7716 214.158C34.2959 213.704 34.9745 213.482 35.6582 213.542C36.342 213.601 36.9748 213.936 37.4175 214.473L37.6628 214.77C37.8836 215.036 38.0511 215.344 38.1555 215.676C38.26 216.008 38.2994 216.358 38.2714 216.706C38.2435 217.054 38.1488 217.393 37.9928 217.703C37.8367 218.013 37.6224 218.289 37.3622 218.514Z" fill="#263238"/>
<path d="M24.7166 202.738V215.722C24.7166 215.822 24.6776 215.919 24.6083 215.99C24.539 216.061 24.445 216.101 24.347 216.101H19.5316C19.4336 216.101 19.3396 216.061 19.2702 215.99C19.2009 215.919 19.162 215.822 19.162 215.722V202.738C19.162 202.035 19.4346 201.361 19.9198 200.863C20.405 200.366 21.063 200.087 21.7492 200.087H22.1294C22.8155 200.087 23.4736 200.366 23.9588 200.863C24.444 201.361 24.7166 202.035 24.7166 202.738Z" fill="#263238"/>
<path d="M15.7501 202.787L18.5166 215.458C18.538 215.556 18.5205 215.659 18.468 215.743C18.4155 215.828 18.3323 215.888 18.2366 215.91L13.5374 216.987C13.4417 217.009 13.3415 216.991 13.2587 216.937C13.1759 216.884 13.1174 216.798 13.096 216.7L10.3296 204.029C10.1798 203.343 10.3021 202.624 10.6697 202.031C11.0372 201.437 11.6199 201.017 12.2895 200.864L12.6605 200.779C13.3301 200.625 14.0318 200.751 14.6112 201.127C15.1907 201.504 15.6003 202.101 15.7501 202.787Z" fill="#263238"/>
<path d="M6.1039 205.962L12.4399 217.207C12.4889 217.294 12.5022 217.397 12.4768 217.494C12.4514 217.591 12.3895 217.674 12.3046 217.724L8.13439 220.191C8.0495 220.241 7.94862 220.255 7.85394 220.229C7.75925 220.203 7.67852 220.139 7.6295 220.052L1.2935 208.808C0.950419 208.199 0.85745 207.476 1.03504 206.796C1.21264 206.117 1.64626 205.538 2.2405 205.187L2.56972 204.992C3.16396 204.64 3.87015 204.545 4.53294 204.727C5.19572 204.909 5.76082 205.353 6.1039 205.962Z" fill="#263238"/>
<path d="M283.53 392.456L296.843 386.654L258.428 294.105L245.115 299.906L283.53 392.456Z" fill="#449BA7"/>
<path d="M260.336 302.949C267.378 294.432 266.348 281.678 258.036 274.463C249.723 267.247 237.276 268.302 230.234 276.82C223.192 285.337 224.222 298.091 232.534 305.306C240.847 312.521 253.294 311.466 260.336 302.949Z" fill="#263238"/>
<path d="M245.326 310.17C242.231 310.171 239.179 309.428 236.416 308.001C233.652 306.573 231.255 304.501 229.416 301.95C227.577 299.4 226.348 296.442 225.828 293.316C225.309 290.191 225.512 286.983 226.423 283.953C227.503 280.378 229.529 277.181 232.277 274.715C235.024 272.25 238.384 270.614 241.985 269.988C245.585 269.362 249.285 269.772 252.672 271.171C256.058 272.57 259 274.904 261.17 277.914C263.34 280.923 264.653 284.49 264.963 288.219C265.273 291.947 264.568 295.69 262.926 299.033C261.284 302.375 258.77 305.185 255.663 307.152C252.556 309.118 248.978 310.162 245.326 310.17ZM245.326 269.724C241.68 269.728 238.107 270.768 235.004 272.729C231.9 274.689 229.389 277.494 227.748 280.83C226.108 284.166 225.403 287.902 225.712 291.624C226.02 295.346 227.331 298.908 229.497 301.912C231.664 304.917 234.601 307.246 237.983 308.642C241.364 310.038 245.057 310.445 248.652 309.819C252.246 309.192 255.599 307.556 258.34 305.093C261.081 302.629 263.101 299.435 264.175 295.866C265.709 290.75 265.2 285.221 262.759 280.49C260.317 275.759 256.144 272.214 251.155 270.633C249.247 270.028 247.26 269.721 245.262 269.724H245.326Z" fill="#263238"/>
<path d="M285.225 350.316C287.413 342.249 282.804 333.893 274.932 331.652C267.059 329.41 258.904 334.132 256.716 342.198C254.529 350.265 259.137 358.621 267.01 360.862C274.882 363.104 283.037 358.382 285.225 350.316Z" fill="#263238"/>
<path d="M293.279 405.829C299.956 405.829 305.37 400.283 305.37 393.44C305.37 386.598 299.956 381.052 293.279 381.052C286.601 381.052 281.188 386.598 281.188 393.44C281.188 400.283 286.601 405.829 293.279 405.829Z" fill="#263238"/>
<path d="M277.464 405.917L284.235 394.534L288.987 397.501L282.216 408.884C281.859 409.485 281.284 409.915 280.617 410.081C279.951 410.247 279.247 410.134 278.661 409.768L278.336 409.566C278.045 409.385 277.791 409.148 277.589 408.866C277.387 408.585 277.242 408.266 277.161 407.927C277.08 407.588 277.065 407.236 277.117 406.891C277.169 406.546 277.287 406.215 277.464 405.917Z" fill="#263238"/>
<path d="M294.322 416.773L290.309 404.457C290.278 404.362 290.285 404.258 290.329 404.168C290.373 404.078 290.45 404.01 290.543 403.978L295.111 402.416C295.203 402.384 295.305 402.392 295.393 402.436C295.48 402.481 295.547 402.56 295.578 402.655L299.591 414.971C299.694 415.303 299.733 415.652 299.705 415.999C299.677 416.346 299.583 416.684 299.427 416.993C299.271 417.303 299.058 417.578 298.799 417.803C298.539 418.028 298.239 418.198 297.916 418.305L297.555 418.428C296.912 418.639 296.214 418.584 295.61 418.275C295.006 417.966 294.543 417.427 294.322 416.773Z" fill="#263238"/>
<path d="M302.821 413.822L296.281 402.7C296.256 402.658 296.24 402.611 296.232 402.561C296.225 402.512 296.227 402.462 296.239 402.414C296.251 402.366 296.272 402.32 296.3 402.28C296.329 402.24 296.365 402.206 296.407 402.181L300.532 399.634C300.573 399.609 300.619 399.592 300.667 399.584C300.715 399.577 300.764 399.579 300.811 399.591C300.858 399.603 300.903 399.624 300.942 399.654C300.981 399.683 301.014 399.721 301.039 399.763L307.579 410.884C307.933 411.487 308.039 412.208 307.874 412.891C307.709 413.573 307.286 414.16 306.698 414.523L306.372 414.724C305.785 415.087 305.08 415.196 304.414 415.027C303.748 414.857 303.175 414.424 302.821 413.822Z" fill="#263238"/>
<path d="M310.985 407.69L301.5 399.08C301.426 399.013 301.382 398.919 301.376 398.819C301.37 398.719 301.403 398.62 301.468 398.545L304.654 394.86C304.719 394.785 304.811 394.739 304.909 394.733C305.007 394.727 305.103 394.761 305.176 394.828L314.661 403.438C315.175 403.904 315.486 404.56 315.528 405.262C315.569 405.964 315.337 406.654 314.882 407.18L314.63 407.472C314.174 407.995 313.534 408.311 312.851 408.352C312.168 408.393 311.497 408.155 310.985 407.69Z" fill="#263238"/>
<path d="M93.2617 266.781C93.2617 266.781 94.6873 408.675 172.398 411.445C250.109 414.215 253.372 267.799 253.372 266.781C253.372 266.781 244.196 245.628 173.317 246.451C102.438 247.273 93.2617 266.781 93.2617 266.781Z" fill="#449BA7"/>
<path d="M136.896 241.809H202.579C206.865 241.809 210.34 238.248 210.34 233.856V232.698C210.34 228.306 206.865 224.746 202.579 224.746H136.896C132.609 224.746 129.134 228.306 129.134 232.698V233.856C129.134 238.248 132.609 241.809 136.896 241.809Z" fill="#263238"/>
<path d="M166.907 115.637H172.578V86.2605H166.907V115.637Z" fill="#263238"/>
<path d="M256.45 203.092C265.404 200.911 270.937 191.706 268.809 182.532C266.681 173.358 257.697 167.689 248.743 169.869C239.79 172.05 234.256 181.254 236.385 190.429C238.513 199.603 247.496 205.272 256.45 203.092Z" fill="#449BA7"/>
<path d="M88.0729 201.983C97.048 199.897 102.673 190.751 100.638 181.555C98.6018 172.359 89.6757 166.595 80.7006 168.681C71.7255 170.767 66.1001 179.913 68.1359 189.109C70.1717 198.305 79.0978 204.069 88.0729 201.983Z" fill="#449BA7"/>
<path d="M166.443 109.264C166.443 109.264 98.6896 108.431 87.9817 168.601C77.2739 228.771 134.551 229.853 151.036 230.989C158.501 231.508 174.489 231.562 188.597 231.303C219.834 230.751 241.904 224.562 249.412 194.872C250.307 191.39 250.869 187.828 251.091 184.236C253.066 151.646 231.598 107.663 166.443 109.264Z" fill="#449BA7"/>
<path d="M215.589 200.844L117.159 202.413C114.703 202.458 112.263 202.005 109.978 201.082C107.692 200.159 105.607 198.783 103.842 197.034C102.076 195.284 100.665 193.195 99.6884 190.885C98.7119 188.576 98.1894 186.092 98.1509 183.576C98.109 181.059 98.5517 178.558 99.4538 176.217C100.356 173.875 101.7 171.739 103.408 169.93C105.117 168.121 107.156 166.675 109.411 165.675C111.665 164.674 114.09 164.139 116.546 164.1L214.976 162.531C217.432 162.485 219.873 162.936 222.159 163.859C224.445 164.781 226.53 166.157 228.296 167.907C230.062 169.657 231.473 171.747 232.449 174.057C233.426 176.367 233.947 178.852 233.984 181.368C234.028 183.886 233.586 186.387 232.684 188.729C231.783 191.071 230.439 193.208 228.73 195.017C227.021 196.826 224.981 198.272 222.726 199.272C220.471 200.272 218.046 200.806 215.589 200.844Z" fill="#263238"/>
<path d="M137.614 181.487C137.385 182.68 136.816 183.776 135.979 184.637C135.142 185.499 134.075 186.086 132.912 186.326C131.749 186.566 130.543 186.447 129.446 185.985C128.349 185.522 127.41 184.737 126.749 183.728C126.088 182.719 125.733 181.532 125.73 180.316C125.727 179.101 126.076 177.912 126.733 176.9C127.389 175.888 128.324 175.098 129.419 174.629C130.513 174.161 131.719 174.037 132.883 174.27C133.656 174.426 134.392 174.736 135.048 175.183C135.704 175.629 136.268 176.204 136.707 176.875C137.147 177.545 137.453 178.297 137.608 179.089C137.764 179.88 137.766 180.695 137.614 181.487Z" fill="white"/>
<path d="M206.349 180.362C206.122 181.556 205.554 182.653 204.718 183.516C203.882 184.379 202.815 184.969 201.652 185.21C200.489 185.451 199.282 185.334 198.184 184.872C197.086 184.411 196.147 183.626 195.485 182.617C194.822 181.608 194.467 180.42 194.463 179.204C194.46 177.988 194.809 176.799 195.465 175.786C196.122 174.773 197.057 173.983 198.152 173.514C199.247 173.046 200.453 172.922 201.618 173.156C203.177 173.47 204.551 174.405 205.438 175.756C206.325 177.107 206.653 178.764 206.349 180.362Z" fill="white"/>
<path d="M196.454 323.132C196.068 328.547 194.124 333.722 190.868 338.005C187.611 342.287 183.188 345.484 178.159 347.191C173.129 348.899 167.718 349.039 162.61 347.596C157.503 346.152 152.927 343.189 149.463 339.081C145.999 334.973 143.801 329.905 143.148 324.517C142.495 319.13 143.415 313.665 145.793 308.813C148.172 303.962 151.9 299.942 156.508 297.262C161.116 294.582 166.396 293.361 171.68 293.756C178.767 294.287 185.357 297.68 190.002 303.189C194.648 308.698 196.968 315.871 196.454 323.132Z" fill="#263238"/>
<path d="M189.199 322.591C188.917 326.537 187.5 330.309 185.126 333.43C182.751 336.551 179.527 338.88 175.861 340.124C172.195 341.367 168.251 341.469 164.529 340.415C160.806 339.362 157.472 337.202 154.948 334.207C152.424 331.212 150.823 327.518 150.349 323.591C149.874 319.664 150.546 315.681 152.281 312.145C154.015 308.61 156.734 305.681 160.093 303.729C163.452 301.777 167.301 300.889 171.152 301.178C173.71 301.369 176.206 302.074 178.497 303.253C180.789 304.433 182.831 306.064 184.507 308.052C186.183 310.041 187.46 312.348 188.265 314.843C189.07 317.338 189.388 319.971 189.199 322.591Z" fill="white"/>
<path d="M179.79 326.227C179.641 325.133 179.581 324.03 179.611 322.926C179.558 320.86 179.516 317.906 179.516 314.27L179.727 314.671L169.684 308.666H170.244L160.106 314.498C159.832 314.974 160.476 313.859 160.413 313.978V315.515V317.062C160.413 318.079 160.413 319.096 160.36 320.092C160.36 322.082 160.286 324.008 160.254 325.869L159.98 325.372L169.906 331.582H169.463C172.557 329.873 175.112 328.51 176.855 327.579C177.792 327.032 178.77 326.562 179.78 326.172C178.992 326.83 178.143 327.406 177.245 327.893C175.535 328.975 173.021 330.5 169.853 332.372L169.631 332.502L169.41 332.372L159.357 326.367L159.082 326.205V325.859C159.082 323.998 159.103 322.072 159.145 320.081C159.145 319.085 159.145 318.079 159.145 317.051V315.515V314.022C159.082 314.141 159.726 313.037 159.452 313.502L169.621 307.724L169.917 307.562L170.191 307.735L180.107 313.946L180.329 314.086V314.346C180.213 318.09 180.096 321.098 179.991 323.143C180.018 324.175 179.951 325.207 179.79 326.227Z" fill="#449BA7"/>
<path d="M176.357 92.4365C180.006 88.6969 180.006 82.6339 176.357 78.8944C172.707 75.1548 166.79 75.1548 163.14 78.8944C159.49 82.6339 159.49 88.6969 163.14 92.4364C166.79 96.176 172.707 96.176 176.357 92.4365Z" fill="#449BA7"/>
<path d="M154.816 178.653C155.259 178.707 155.038 180.817 156.347 183.706C157.089 185.364 158.169 186.84 159.515 188.034C161.093 189.456 163.056 190.35 165.144 190.598C167.242 190.737 169.332 190.224 171.142 189.126C172.673 188.214 173.998 186.978 175.028 185.502C176.823 182.937 176.981 180.784 177.425 180.817C177.604 180.817 177.784 181.358 177.784 182.375C177.744 183.824 177.383 185.244 176.728 186.53C175.744 188.472 174.29 190.122 172.504 191.323C170.296 192.917 167.607 193.654 164.918 193.402C162.229 193.15 159.715 191.926 157.825 189.949C156.284 188.438 155.149 186.544 154.531 184.452C154.091 183.056 153.975 181.574 154.193 180.124C154.372 179.118 154.647 178.62 154.816 178.653Z" fill="white"/>
<path d="M245.03 206.687C244.924 206.687 246.139 204.74 247.311 201.331C248.769 196.868 249.691 192.239 250.056 187.547C250.479 182.871 250.585 178.171 250.373 173.481C250.299 171.674 250.215 170.235 250.13 169.153C250.059 168.629 250.041 168.1 250.078 167.573C250.213 168.083 250.301 168.604 250.342 169.131C250.489 170.137 250.637 171.598 250.764 173.459C251.095 178.187 251.042 182.936 250.606 187.655C250.234 192.391 249.25 197.055 247.68 201.526C247.183 202.874 246.583 204.181 245.885 205.432C245.636 205.875 245.35 206.295 245.03 206.687Z" fill="#263238"/>
<path d="M88.1084 166.588C88.0486 167.114 87.939 167.632 87.781 168.136C87.6438 168.622 87.4959 169.218 87.3586 169.932C87.2214 170.646 87.0102 171.425 86.8834 172.323C86.5132 174.408 86.2664 176.515 86.1442 178.631C86.0022 181.22 86.0375 183.816 86.2498 186.4C86.4858 188.979 86.8951 191.539 87.4748 194.06C87.9596 196.123 88.5662 198.154 89.2911 200.141C89.5762 200.996 89.9036 201.742 90.1676 202.413C90.4316 203.084 90.685 203.647 90.8962 204.101C91.137 204.568 91.335 205.057 91.4876 205.562C91.1871 205.133 90.9255 204.676 90.7062 204.199C90.4076 203.658 90.1362 203.102 89.893 202.532C89.5974 201.883 89.2383 201.137 88.9321 200.282C88.148 198.3 87.4988 196.264 86.989 194.19C86.3711 191.644 85.9404 189.055 85.7007 186.443C85.4855 183.834 85.4643 181.211 85.6374 178.598C85.7846 176.464 86.0739 174.342 86.5033 172.247C86.6617 171.349 86.8834 170.559 87.063 169.856C87.2425 169.153 87.4114 168.557 87.5698 168.071C87.7098 167.562 87.8899 167.067 88.1084 166.588Z" fill="#263238"/>
<path d="M92.9026 266.662L93.3039 266.781L94.4866 267.193L98.9851 268.816L102.238 270.006C103.431 270.417 104.751 270.806 106.155 271.25C108.975 272.105 112.153 273.219 115.765 274.085L121.393 275.567C123.358 276.076 125.427 276.455 127.56 276.931C131.784 277.926 136.42 278.608 141.288 279.408C151.816 280.888 162.427 281.665 173.053 281.735C183.679 281.671 194.29 280.894 204.817 279.408C209.654 278.608 214.258 277.937 218.545 276.931C220.657 276.465 222.769 276.087 224.712 275.578L230.352 274.096C233.953 273.23 237.131 272.116 239.951 271.261C241.355 270.817 242.675 270.428 243.868 270.017L247.121 268.826L251.619 267.203L252.802 266.792C252.935 266.738 253.073 266.699 253.214 266.673L252.823 266.846L251.662 267.312L247.195 269.032L243.868 270.309C242.686 270.731 241.366 271.131 239.961 271.596C237.142 272.484 233.974 273.62 230.362 274.518L224.723 276.033C222.769 276.552 220.689 276.941 218.556 277.428C214.332 278.445 209.686 279.138 204.828 279.96C194.279 281.477 183.642 282.268 172.99 282.33C162.341 282.261 151.708 281.465 141.162 279.949C136.315 279.138 131.658 278.435 127.434 277.417C125.322 276.931 123.21 276.541 121.267 276.022L115.628 274.507C112.016 273.609 108.848 272.473 106.029 271.586C104.624 271.12 103.315 270.72 102.121 270.298L98.8795 269.054L94.4127 267.333L93.2511 266.868C93.1288 266.811 93.0121 266.742 92.9026 266.662Z" fill="#263238"/>
<g opacity="0.3">
<path d="M93.2617 266.781C93.2617 266.781 102.438 247.305 173.317 246.451C244.196 245.596 253.372 266.781 253.372 266.781C253.372 266.781 181.839 302.909 93.2617 266.781Z" fill="black"/>
</g>
<path d="M157.857 113.765C157.776 113.773 157.695 113.773 157.614 113.765L156.907 113.841C156.273 113.906 155.344 113.927 154.151 114.068C150.784 114.403 147.443 114.97 144.15 115.767C127.122 119.763 112.102 129.989 101.91 144.526C96.9864 151.512 93.2583 159.306 90.8857 167.573C90.5161 168.741 90.3155 169.672 90.136 170.289L89.9353 171.003C89.9163 171.085 89.888 171.165 89.8508 171.241C89.8368 171.158 89.8368 171.074 89.8508 170.992C89.8508 170.797 89.9353 170.559 89.9987 170.267C90.1465 169.639 90.3049 168.698 90.6428 167.508C91.5242 164.146 92.6539 160.858 94.022 157.673C98.5358 147.085 105.407 137.728 114.086 130.352C122.802 123.031 133.069 117.903 144.066 115.377C147.378 114.606 150.742 114.096 154.13 113.852C155.333 113.743 156.242 113.754 156.896 113.722H157.614C157.783 113.743 157.857 113.754 157.857 113.765Z" fill="white"/>
<path d="M91.572 197.057C91.1488 196.387 90.8217 195.659 90.6005 194.893C89.3479 191.277 88.7642 187.454 88.8792 183.619C88.8491 182.823 88.9417 182.027 89.1538 181.26C89.3227 181.26 89.0904 184.874 89.7663 189.245C90.4421 193.617 91.7304 196.992 91.572 197.057Z" fill="white"/>
<path d="M73.7996 191.463C73.7996 191.463 73.5567 191.29 73.2294 190.879C72.7627 190.296 72.3624 189.661 72.0361 188.986C70.9084 186.749 70.4769 184.212 70.7998 181.716C71.1226 179.221 72.1844 176.886 73.8418 175.028C74.3273 174.459 74.8767 173.95 75.4786 173.513C75.6854 173.335 75.9214 173.196 76.1756 173.102C76.239 173.188 75.2886 173.848 74.1375 175.266C72.6268 177.12 71.6603 179.374 71.35 181.768C71.0397 184.162 71.3984 186.597 72.3846 188.791C73.1238 190.511 73.8735 191.398 73.7996 191.463Z" fill="white"/>
<path d="M170.35 78.9895C169.526 78.8966 168.695 78.8784 167.868 78.9354C166.883 79.0239 165.931 79.3425 165.085 79.8665C164.239 80.3906 163.521 81.1063 162.987 81.9588C162.453 82.8112 162.116 83.7776 162.003 84.784C161.89 85.7904 162.003 86.81 162.335 87.7645C162.62 88.5562 162.973 89.3202 163.391 90.0475C163.391 90.0475 163.179 89.9177 162.884 89.5714C162.478 89.0706 162.157 88.5037 161.933 87.8943C161.53 86.884 161.371 85.789 161.469 84.7022C161.566 83.6153 161.918 82.5685 162.494 81.6504C163.07 80.7322 163.853 79.9698 164.777 79.4275C165.702 78.8852 166.74 78.5791 167.805 78.535C168.437 78.4901 169.072 78.5522 169.684 78.719C170.159 78.7947 170.35 78.957 170.35 78.9895Z" fill="white"/>
<path d="M262.391 178.339C262.274 178.469 260.638 176.856 258.167 175.645C255.696 174.433 253.446 174.076 253.467 173.903C255.189 173.859 256.891 174.284 258.399 175.136C259.986 175.816 261.365 176.923 262.391 178.339Z" fill="white"/>
<path d="M117.55 367.765C117.502 367.7 117.459 367.631 117.423 367.559L117.075 366.921C116.758 366.304 116.335 365.481 115.786 364.432C115.512 363.891 115.216 363.285 114.878 362.636L113.885 360.472C113.167 358.903 112.365 357.118 111.573 355.062C111.171 354.056 110.749 352.995 110.306 351.902C109.862 350.81 109.482 349.619 109.049 348.418C108.141 346.027 107.37 343.398 106.472 340.671C104.814 335.153 103.188 329.04 101.763 322.548C100.337 316.056 99.3021 309.791 98.4573 304.089C97.6125 298.387 97.0633 293.269 96.7254 288.876C96.5248 286.712 96.3981 284.743 96.2925 283.011C96.1869 281.28 96.0918 279.765 96.0601 278.575C96.0285 277.385 95.9968 276.465 95.9651 275.773V275.048C95.9537 274.965 95.9537 274.882 95.9651 274.799C95.9773 274.882 95.9773 274.965 95.9651 275.048L96.0285 275.773C96.0285 276.455 96.1446 277.396 96.2185 278.564C96.2925 279.733 96.3981 281.269 96.5459 282.99C96.6937 284.71 96.831 286.679 97.0633 288.843C97.4435 293.171 98.1193 298.322 98.9113 303.991C99.7033 309.661 100.854 315.893 102.248 322.385C103.642 328.877 105.279 334.98 106.895 340.487C107.792 343.214 108.542 345.832 109.429 348.224C109.852 349.435 110.253 350.593 110.654 351.708L111.879 354.889C112.639 356.912 113.421 358.708 114.118 360.299L115.068 362.463C115.374 363.123 115.67 363.729 115.934 364.28L117.117 366.812L117.412 367.472C117.476 367.56 117.523 367.659 117.55 367.765Z" fill="white"/>
<path d="M76.2283 279.549C73.6519 279.649 71.0718 279.555 68.5089 279.268C65.9339 279.175 63.3685 278.897 60.8318 278.435C63.4082 278.335 65.9882 278.429 68.5511 278.716C71.1262 278.807 73.6916 279.086 76.2283 279.549Z" fill="white"/>
<path d="M36.5016 256.448C35.0039 254.213 33.6595 251.874 32.4782 249.448C31.1394 247.111 29.9609 244.681 28.9512 242.177C30.4443 244.417 31.7851 246.759 32.964 249.188C34.3096 251.519 35.4918 253.945 36.5016 256.448Z" fill="white"/>
<path d="M155.038 401.88C154.622 401.872 154.208 401.821 153.802 401.728C152.685 401.525 151.581 401.25 150.497 400.906C148.886 400.404 147.312 399.785 145.787 399.056C143.929 398.138 142.142 397.074 140.444 395.875C138.764 394.645 137.182 393.281 135.713 391.796C134.523 390.574 133.422 389.265 132.418 387.879C131.731 386.954 131.106 385.981 130.549 384.968C130.321 384.613 130.133 384.231 129.989 383.832C130.074 383.778 130.961 385.347 132.724 387.641C133.761 388.974 134.879 390.239 136.072 391.428C138.995 394.337 142.349 396.755 146.009 398.591C147.504 399.331 149.042 399.978 150.613 400.527C153.316 401.458 155.059 401.772 155.038 401.88Z" fill="white"/>
<path d="M171.237 351.827C170.992 351.87 170.745 351.896 170.498 351.902C169.795 351.963 169.09 351.985 168.386 351.967C165.76 351.908 163.154 351.475 160.645 350.68C158.911 350.126 157.223 349.432 155.597 348.602C153.733 347.62 151.965 346.457 150.317 345.129C146.5 342.125 143.492 338.175 141.574 333.651C139.657 329.127 138.893 324.178 139.356 319.269C139.528 317.139 139.899 315.03 140.465 312.972C140.971 311.187 141.624 309.45 142.418 307.778C143.564 305.355 145.035 303.107 146.79 301.102C147.261 300.554 147.762 300.034 148.29 299.544C148.465 299.365 148.652 299.199 148.85 299.047C148.85 299.047 148.153 299.815 146.949 301.211C145.259 303.247 143.839 305.502 142.725 307.919C141.064 311.481 140.075 315.332 139.81 319.269C139.382 324.091 140.144 328.946 142.026 333.387C143.909 337.829 146.85 341.714 150.581 344.685C152.181 346.004 153.899 347.164 155.714 348.148C157.304 349.007 158.96 349.731 160.666 350.312C163.138 351.133 165.705 351.617 168.301 351.751C170.212 351.827 171.237 351.762 171.237 351.827Z" fill="white"/>
<path d="M43.3868 266.619C43.3868 266.706 42.5736 266.305 41.2748 265.992C39.5367 265.602 37.735 265.62 36.0049 266.046C34.2748 266.471 32.6612 267.292 31.285 268.448C30.229 269.346 29.7221 270.06 29.6482 270.006C29.938 269.29 30.3862 268.653 30.9576 268.145C32.3282 266.856 33.997 265.947 35.8061 265.504C37.6152 265.061 39.5048 265.099 41.2959 265.613C42.0591 265.779 42.7747 266.123 43.3868 266.619Z" fill="white"/>
<path d="M199.326 159.036C199.326 159.187 186.359 159.317 170.371 159.317C154.383 159.317 141.405 159.187 141.405 159.036C141.405 158.884 154.372 158.755 170.371 158.755C186.369 158.755 199.326 158.863 199.326 159.036Z" fill="white"/>
<path d="M149.905 226.693C149.747 226.739 149.584 226.765 149.42 226.769L148.005 226.899C147.392 226.953 146.642 226.996 145.766 227.018C144.889 227.04 143.897 227.083 142.799 227.018C140.592 227.018 137.973 226.856 135.069 226.542C131.926 226.167 128.806 225.615 125.723 224.886C122.647 224.131 119.615 223.199 116.641 222.095C114.218 221.186 111.843 220.149 109.524 218.989C108.468 218.513 107.655 218.016 106.884 217.594C106.113 217.172 105.458 216.793 104.93 216.512L103.716 215.754C103.572 215.673 103.437 215.575 103.315 215.462C103.315 215.462 103.484 215.462 103.769 215.657L105.036 216.317C105.575 216.62 106.24 216.977 107.021 217.399C107.803 217.821 108.69 218.254 109.693 218.708C111.678 219.66 114.096 220.677 116.821 221.684C122.742 223.859 128.885 225.34 135.132 226.098C138.004 226.444 140.613 226.639 142.799 226.693C143.855 226.758 144.911 226.693 145.766 226.693C146.621 226.693 147.382 226.693 147.994 226.693H149.409C149.573 226.665 149.741 226.665 149.905 226.693Z" fill="white"/>
<path d="M234.206 275.448C234.128 275.501 234.042 275.541 233.952 275.567L233.192 275.859L230.256 276.941C228.979 277.417 227.416 277.969 225.568 278.521C223.72 279.073 221.64 279.787 219.285 280.393L215.61 281.388C214.332 281.724 212.98 282.005 211.597 282.341C208.83 283.022 205.831 283.563 202.684 284.18C188.978 286.626 175.048 287.501 161.152 286.788C157.984 286.582 154.911 286.42 152.081 286.084C150.666 285.933 149.293 285.825 147.984 285.641L144.214 285.11C141.806 284.818 139.652 284.375 137.761 284.028C135.871 283.682 134.234 283.358 132.914 283.044L129.873 282.351L129.081 282.157C128.989 282.141 128.901 282.112 128.817 282.07C128.912 282.062 129.007 282.062 129.102 282.07L129.894 282.211L132.957 282.806C134.287 283.076 135.913 283.39 137.814 283.682C139.715 283.974 141.859 284.396 144.266 284.667L148.026 285.154C149.335 285.327 150.708 285.424 152.123 285.565C154.943 285.879 157.984 286.019 161.173 286.214C167.562 286.485 174.584 286.495 181.955 286.052C189.326 285.608 196.285 284.667 202.589 283.607C205.757 283.011 208.735 282.525 211.502 281.832C212.885 281.507 214.237 281.237 215.515 280.912L219.19 279.949C221.545 279.376 223.625 278.705 225.473 278.164C227.321 277.623 228.905 277.082 230.183 276.682L233.15 275.708L233.931 275.47L234.206 275.448Z" fill="white"/>
</svg>
