<svg width="528" height="541" viewBox="0 0 528 541" fill="none" xmlns="http://www.w3.org/2000/svg">
<rect width="528" height="541" fill="#1E1E1E"/>
<rect width="1500" height="982" transform="translate(-853 -244)" fill="white"/>
<g filter="url(#filter0_d_0_1)">
<rect x="-821" y="-7" width="1434" height="647" rx="35" fill="white"/>
</g>
<rect x="-6" y="28" width="546" height="488" fill="white"/>
<path d="M62.0295 105.051L64.5956 100.723C86.2647 64.141 125.432 42.0899 166.732 44.7732C172.059 45.1051 177.354 45.8465 182.572 46.9913C220.123 55.2253 252.796 84.3203 266.334 121.584C274.296 143.495 276.524 168.727 291.678 186.126C311.351 208.761 344.752 209.475 374.109 208.534C403.466 207.593 436.888 208.393 456.477 231.126C468.737 245.354 472.634 265.599 471.652 284.653C469.033 335.117 434.692 380.247 391.069 402.677C347.445 425.107 296.029 427.109 248.255 417.241C181.347 403.424 117.702 365.467 79.4535 306.877C41.2052 248.287 31.4266 168.327 62.0295 105.051Z" fill="#EBEBEB"/>
<path d="M74.9337 427.033C89.5607 427.033 101.418 414.884 101.418 399.896C101.418 384.909 89.5607 372.76 74.9337 372.76C60.3067 372.76 48.4492 384.909 48.4492 399.896C48.4492 414.884 60.3067 427.033 74.9337 427.033Z" fill="#EBEBEB"/>
<path d="M489.752 503.465C489.752 503.628 389.611 503.747 266.123 503.747C142.634 503.747 42.4723 503.628 42.4723 503.465C42.4723 503.303 142.581 503.184 266.123 503.184C389.664 503.184 489.752 503.314 489.752 503.465Z" fill="#263238"/>
<path d="M101.841 445.124C103.263 445.475 104.601 446.117 105.775 447.011C106.95 447.906 107.935 449.034 108.673 450.328C110.132 452.934 110.995 455.846 111.197 458.844C111.735 464.6 109.782 470.951 107.353 476.156C101.872 473.018 99.3273 466.039 98.2502 462.414C96.55 456.691 96.8668 445.275 101.841 445.102" fill="#455A64"/>
<path d="M114.639 484.292C113.985 482.759 113.738 481.076 113.923 479.413C114.109 477.75 114.72 476.167 115.695 474.825C116.699 473.503 117.95 472.4 119.376 471.581C120.801 470.762 122.372 470.242 123.996 470.053C124.724 469.892 125.479 469.892 126.207 470.054C126.936 470.217 127.622 470.537 128.22 470.995C128.705 471.523 129.044 472.175 129.2 472.883C129.356 473.591 129.324 474.329 129.107 475.02C128.658 476.396 127.864 477.627 126.805 478.59C123.33 482.031 119.349 484.703 114.534 484.292" fill="#455A64"/>
<path d="M112.274 502.827C112.212 502.434 112.187 502.035 112.2 501.637C112.2 500.793 112.2 499.7 112.115 498.391C111.9 494.803 112.257 491.203 113.171 487.733C114.153 484.253 116.023 481.104 118.589 478.612C119.374 477.871 120.243 477.228 121.176 476.697C121.425 476.551 121.682 476.421 121.947 476.307C122.034 476.253 122.131 476.216 122.232 476.199C121.002 476.956 119.849 477.837 118.789 478.828C116.311 481.328 114.494 484.434 113.509 487.852C112.601 491.284 112.199 494.837 112.316 498.391C112.316 499.765 112.316 500.869 112.316 501.637C112.33 502.034 112.316 502.432 112.274 502.827Z" fill="#263238"/>
<path d="M102.348 453.845C102.415 454.002 102.468 454.165 102.506 454.332C102.612 454.7 102.738 455.176 102.886 455.76C103.213 457.004 103.668 458.811 104.196 461.051C105.252 465.53 106.667 471.741 108.061 478.623C109.454 485.504 110.574 491.78 111.324 496.324C111.693 498.596 111.978 500.436 112.168 501.734C112.253 502.34 112.316 502.816 112.369 503.206C112.386 503.378 112.386 503.552 112.369 503.725C112.314 503.559 112.272 503.389 112.242 503.217C112.168 502.838 112.084 502.362 111.968 501.756C111.725 500.447 111.397 498.618 110.996 496.4C110.173 491.866 109.011 485.58 107.617 478.731C106.223 471.882 104.871 465.639 103.879 461.148C103.382 458.984 102.981 457.134 102.696 455.825C102.569 455.23 102.464 454.743 102.39 454.375C102.356 454.201 102.342 454.023 102.348 453.845Z" fill="#263238"/>
<path d="M107.353 489.453C106.083 486.175 104.071 483.253 101.482 480.927C98.8931 478.602 95.8019 476.941 92.4634 476.08C90.7632 475.658 88.6512 475.604 87.6163 477.054C86.5815 478.504 87.3101 480.559 88.271 482.063C90.3255 485.156 93.2251 487.558 96.6065 488.969C99.9879 490.38 103.701 490.737 107.279 489.994" fill="#455A64"/>
<path d="M94.322 481.198C94.6795 481.243 95.0328 481.319 95.378 481.425C95.796 481.525 96.2084 481.648 96.6135 481.793C97.0782 481.966 97.6695 482.117 98.2081 482.388C98.7467 482.658 99.4331 482.918 100.077 483.286C100.784 483.653 101.469 484.065 102.126 484.52C103.64 485.549 105.033 486.754 106.276 488.112C107.495 489.488 108.558 491.002 109.444 492.624C109.834 493.325 110.187 494.047 110.5 494.788C110.77 495.438 111.007 496.102 111.207 496.779C111.419 497.385 111.503 497.969 111.63 498.467C111.731 498.895 111.809 499.328 111.862 499.765C111.927 500.122 111.962 500.484 111.968 500.847C111.873 500.847 111.704 499.267 110.912 496.833C110.703 496.174 110.459 495.528 110.183 494.896C109.87 494.155 109.517 493.433 109.127 492.732C108.231 491.146 107.169 489.666 105.959 488.317C104.732 486.989 103.373 485.796 101.904 484.758C101.207 484.303 100.552 483.86 99.8977 483.524C99.3061 483.179 98.6962 482.869 98.0708 482.594C95.8215 481.641 94.2903 481.284 94.322 481.198Z" fill="#263238"/>
<path d="M112.063 323.518L67.5841 318.8L48.745 274.99L34.1089 278.896C34.1089 278.896 44.9223 325.195 57.0241 332.369C69.1258 339.542 110.468 340.83 110.468 340.83L112.063 323.518Z" fill="#449BA7"/>
<path d="M135.708 345.801C142.946 337.457 142.212 324.682 134.068 317.267C125.925 309.851 113.457 310.603 106.22 318.947C98.9825 327.29 99.7167 340.066 107.86 347.481C116.003 354.897 128.471 354.144 135.708 345.801Z" fill="#263238"/>
<path d="M120.965 352.602C116.394 352.602 111.964 350.978 108.431 348.007C104.897 345.036 102.478 340.901 101.587 336.307C100.695 331.714 101.385 326.945 103.54 322.815C105.695 318.684 109.181 315.447 113.404 313.655C117.627 311.862 122.326 311.626 126.7 312.985C131.074 314.345 134.853 317.217 137.393 321.111C139.932 325.005 141.075 329.681 140.627 334.342C140.179 339.003 138.168 343.361 134.936 346.673C133.105 348.558 130.928 350.053 128.53 351.071C126.132 352.089 123.56 352.609 120.965 352.602ZM120.965 312.179C116.406 312.174 111.987 313.789 108.46 316.748C104.933 319.708 102.516 323.829 101.622 328.409C100.728 332.989 101.412 337.746 103.556 341.867C105.701 345.989 109.174 349.222 113.384 351.014C117.594 352.806 122.28 353.047 126.644 351.696C131.008 350.345 134.78 347.485 137.317 343.604C139.853 339.723 140.998 335.061 140.557 330.412C140.115 325.763 138.113 321.415 134.893 318.108C133.07 316.225 130.9 314.732 128.509 313.714C126.118 312.696 123.554 312.174 120.965 312.179Z" fill="#263238"/>
<path d="M63.5968 335.83C71.5419 333.875 76.4363 325.692 74.5289 317.551C72.6214 309.41 64.6344 304.395 56.6894 306.35C48.7443 308.304 43.8499 316.488 45.7573 324.629C47.6648 332.769 55.6518 337.784 63.5968 335.83Z" fill="#263238"/>
<path d="M48.9086 278.532C53.6305 273.694 53.6305 265.85 48.9086 261.012C44.1867 256.174 36.531 256.174 31.809 261.012C27.0871 265.85 27.0871 273.694 31.809 278.532C36.531 283.371 44.1867 283.371 48.9086 278.532Z" fill="#263238"/>
<path d="M59.2047 263.067L49.2487 271.682L45.6581 267.325L55.6141 258.711C56.1384 258.257 56.817 258.036 57.5008 258.095C58.1845 258.154 58.8173 258.489 59.26 259.026L59.5053 259.324C59.7262 259.589 59.8936 259.897 59.9981 260.229C60.1025 260.562 60.1419 260.912 60.114 261.259C60.086 261.607 59.9913 261.946 59.8353 262.256C59.6793 262.567 59.465 262.842 59.2047 263.067Z" fill="#263238"/>
<path d="M46.5591 247.291V260.275C46.5591 260.376 46.5201 260.472 46.4508 260.543C46.3815 260.614 46.2875 260.654 46.1895 260.654H41.3741C41.2761 260.654 41.1821 260.614 41.1128 260.543C41.0435 260.472 41.0045 260.376 41.0045 260.275V247.291C41.0045 246.588 41.2771 245.914 41.7623 245.417C42.2475 244.919 42.9056 244.64 43.5917 244.64H43.9719C44.6581 244.64 45.3161 244.919 45.8013 245.417C46.2865 245.914 46.5591 246.588 46.5591 247.291Z" fill="#263238"/>
<path d="M37.5925 247.34L40.359 260.011C40.3804 260.109 40.3629 260.212 40.3104 260.297C40.2579 260.381 40.1747 260.441 40.079 260.463L35.3798 261.54C35.2841 261.562 35.1839 261.544 35.1011 261.491C35.0184 261.437 34.9598 261.352 34.9384 261.253L32.172 248.583C32.0222 247.897 32.1445 247.178 32.5121 246.584C32.8796 245.99 33.4623 245.57 34.1319 245.417L34.5029 245.332C35.1725 245.178 35.8742 245.304 36.4536 245.68C37.0331 246.057 37.4427 246.654 37.5925 247.34Z" fill="#263238"/>
<path d="M27.9464 250.516L34.2824 261.76C34.3314 261.847 34.3447 261.95 34.3193 262.047C34.294 262.144 34.232 262.227 34.1471 262.277L29.9769 264.744C29.892 264.795 29.7912 264.808 29.6965 264.782C29.6018 264.756 29.521 264.693 29.472 264.606L23.136 253.361C22.7929 252.752 22.7 252.029 22.8776 251.35C23.0552 250.671 23.4888 250.092 24.083 249.74L24.4123 249.545C25.0065 249.194 25.7127 249.098 26.3755 249.28C27.0383 249.462 27.6033 249.907 27.9464 250.516Z" fill="#263238"/>
<path d="M305.373 437.009L318.686 431.208L280.27 338.658L266.957 344.46L305.373 437.009Z" fill="#449BA7"/>
<path d="M282.179 347.502C289.221 338.985 288.191 326.231 279.878 319.016C271.566 311.8 259.118 312.856 252.076 321.373C245.034 329.89 246.064 342.644 254.377 349.859C262.689 357.075 275.137 356.019 282.179 347.502Z" fill="#263238"/>
<path d="M267.168 354.723C264.073 354.724 261.021 353.981 258.258 352.554C255.495 351.126 253.097 349.054 251.258 346.503C249.419 343.953 248.19 340.996 247.671 337.87C247.151 334.744 247.355 331.536 248.266 328.506C249.346 324.932 251.372 321.734 254.119 319.269C256.866 316.803 260.227 315.167 263.827 314.541C267.428 313.915 271.127 314.325 274.514 315.724C277.901 317.123 280.843 319.457 283.013 322.467C285.183 325.477 286.496 329.044 286.806 332.772C287.116 336.5 286.41 340.244 284.769 343.586C283.127 346.928 280.613 349.739 277.505 351.705C274.398 353.671 270.82 354.716 267.168 354.723ZM267.168 314.278C263.522 314.281 259.949 315.322 256.846 317.282C253.743 319.243 251.231 322.047 249.591 325.383C247.95 328.719 247.245 332.456 247.554 336.178C247.863 339.9 249.173 343.461 251.339 346.465C253.506 349.47 256.443 351.8 259.825 353.195C263.206 354.591 266.9 354.998 270.494 354.372C274.088 353.745 277.442 352.109 280.182 349.646C282.923 347.182 284.943 343.988 286.018 340.419C287.552 335.304 287.042 329.774 284.601 325.043C282.16 320.313 277.987 316.768 272.997 315.187C271.089 314.581 269.102 314.275 267.105 314.278H267.168Z" fill="#263238"/>
<path d="M307.068 394.869C309.255 386.803 304.647 378.446 296.774 376.205C288.902 373.963 280.746 378.685 278.559 386.752C276.371 394.818 280.98 403.174 288.852 405.416C296.725 407.657 304.88 402.935 307.068 394.869Z" fill="#263238"/>
<path d="M315.121 450.383C321.799 450.383 327.212 444.836 327.212 437.994C327.212 431.151 321.799 425.605 315.121 425.605C308.443 425.605 303.03 431.151 303.03 437.994C303.03 444.836 308.443 450.383 315.121 450.383Z" fill="#263238"/>
<path d="M299.307 450.47L306.077 439.087L310.829 442.055L304.059 453.437C303.702 454.038 303.126 454.468 302.46 454.634C301.793 454.8 301.089 454.687 300.503 454.322L300.178 454.119C299.887 453.938 299.633 453.701 299.431 453.42C299.229 453.138 299.084 452.819 299.003 452.48C298.922 452.141 298.907 451.789 298.959 451.444C299.011 451.099 299.129 450.768 299.307 450.47Z" fill="#263238"/>
<path d="M316.164 461.327L312.152 449.011C312.121 448.915 312.128 448.811 312.172 448.722C312.216 448.632 312.292 448.563 312.385 448.532L316.953 446.969C317.046 446.937 317.148 446.945 317.235 446.99C317.323 447.035 317.39 447.113 317.421 447.208L321.433 459.524C321.537 459.856 321.576 460.205 321.548 460.552C321.52 460.899 321.425 461.237 321.27 461.547C321.114 461.856 320.9 462.131 320.641 462.356C320.382 462.581 320.082 462.752 319.758 462.858L319.398 462.981C318.755 463.192 318.056 463.137 317.452 462.828C316.848 462.519 316.386 461.98 316.164 461.327Z" fill="#263238"/>
<path d="M324.664 458.375L318.124 447.254C318.099 447.211 318.082 447.164 318.075 447.115C318.068 447.065 318.07 447.015 318.082 446.967C318.093 446.919 318.114 446.873 318.143 446.833C318.172 446.793 318.208 446.76 318.25 446.734L322.374 444.188C322.416 444.162 322.462 444.145 322.51 444.137C322.558 444.13 322.607 444.132 322.654 444.144C322.701 444.156 322.745 444.178 322.784 444.207C322.823 444.237 322.856 444.274 322.881 444.316L329.421 455.438C329.775 456.04 329.881 456.762 329.716 457.444C329.551 458.126 329.128 458.714 328.54 459.076L328.215 459.277C327.627 459.64 326.923 459.749 326.257 459.58C325.591 459.411 325.018 458.977 324.664 458.375Z" fill="#263238"/>
<path d="M332.827 452.243L323.342 443.633C323.269 443.566 323.224 443.472 323.218 443.372C323.212 443.272 323.245 443.173 323.31 443.098L326.497 439.413C326.562 439.338 326.653 439.292 326.751 439.286C326.849 439.28 326.945 439.314 327.018 439.381L336.503 447.991C337.017 448.457 337.329 449.114 337.37 449.815C337.412 450.517 337.179 451.207 336.724 451.733L336.472 452.025C336.016 452.548 335.377 452.864 334.693 452.905C334.01 452.946 333.339 452.708 332.827 452.243Z" fill="#263238"/>
<path d="M115.104 311.335C115.104 311.335 116.53 453.228 194.241 455.998C271.952 458.768 275.215 312.352 275.215 311.335C275.215 311.335 266.038 290.182 195.159 291.004C124.281 291.826 115.104 311.335 115.104 311.335Z" fill="#449BA7"/>
<path d="M158.738 286.362H224.421C228.708 286.362 232.183 282.802 232.183 278.409V277.252C232.183 272.86 228.708 269.299 224.421 269.299H158.738C154.451 269.299 150.976 272.86 150.976 277.252V278.409C150.976 282.802 154.451 286.362 158.738 286.362Z" fill="#263238"/>
<path d="M188.749 160.19H194.42V130.814H188.749V160.19Z" fill="#263238"/>
<path d="M278.292 247.645C287.246 245.464 292.779 236.26 290.651 227.085C288.523 217.911 279.539 212.242 270.586 214.422C261.632 216.603 256.099 225.808 258.227 234.982C260.355 244.156 269.338 249.825 278.292 247.645Z" fill="#449BA7"/>
<path d="M109.915 246.536C118.89 244.45 124.516 235.304 122.48 226.108C120.444 216.912 111.518 211.148 102.543 213.234C93.5678 215.32 87.9423 224.466 89.9781 233.662C92.0139 242.858 100.94 248.622 109.915 246.536Z" fill="#449BA7"/>
<path d="M188.285 153.817C188.285 153.817 120.532 152.984 109.824 213.154C99.1162 273.324 156.394 274.406 172.878 275.542C180.344 276.062 196.332 276.116 210.44 275.856C241.676 275.304 263.747 269.115 271.255 239.425C272.149 235.944 272.711 232.382 272.934 228.789C274.908 196.199 253.44 152.216 188.285 153.817Z" fill="#449BA7"/>
<path d="M237.431 245.398L139.001 246.967C136.545 247.011 134.105 246.559 131.82 245.636C129.535 244.712 127.45 243.337 125.684 241.587C123.919 239.837 122.507 237.748 121.531 235.439C120.554 233.129 120.032 230.645 119.993 228.129C119.951 225.612 120.394 223.111 121.296 220.77C122.198 218.428 123.542 216.292 125.25 214.483C126.959 212.675 128.999 211.229 131.253 210.228C133.507 209.228 135.932 208.692 138.389 208.653L236.818 207.084C239.275 207.038 241.716 207.489 244.001 208.412C246.287 209.335 248.373 210.71 250.139 212.46C251.904 214.21 253.316 216.3 254.292 218.61C255.268 220.92 255.789 223.405 255.826 225.922C255.87 228.439 255.428 230.94 254.526 233.282C253.625 235.624 252.281 237.761 250.572 239.57C248.864 241.379 246.823 242.825 244.568 243.825C242.313 244.825 239.888 245.36 237.431 245.398Z" fill="#263238"/>
<path d="M159.456 226.041C159.227 227.233 158.658 228.329 157.821 229.191C156.985 230.052 155.917 230.64 154.754 230.879C153.592 231.119 152.385 231 151.288 230.538C150.192 230.075 149.253 229.29 148.592 228.281C147.93 227.272 147.576 226.085 147.573 224.87C147.57 223.654 147.919 222.465 148.575 221.453C149.232 220.441 150.166 219.651 151.261 219.183C152.356 218.715 153.561 218.59 154.725 218.824C155.498 218.979 156.234 219.289 156.891 219.736C157.547 220.183 158.111 220.758 158.55 221.428C158.989 222.098 159.296 222.85 159.451 223.642C159.606 224.433 159.608 225.248 159.456 226.041Z" fill="white"/>
<path d="M228.191 224.915C227.964 226.109 227.397 227.206 226.561 228.069C225.725 228.932 224.657 229.522 223.494 229.763C222.331 230.005 221.124 229.887 220.027 229.425C218.929 228.964 217.989 228.179 217.327 227.17C216.665 226.161 216.309 224.973 216.306 223.758C216.302 222.542 216.651 221.352 217.307 220.339C217.964 219.326 218.899 218.536 219.994 218.068C221.09 217.6 222.296 217.475 223.46 217.709C225.02 218.023 226.394 218.958 227.281 220.309C228.168 221.661 228.495 223.317 228.191 224.915Z" fill="white"/>
<path d="M218.296 367.685C217.911 373.1 215.966 378.276 212.71 382.558C209.453 386.841 205.031 390.038 200.001 391.745C194.971 393.452 189.56 393.592 184.453 392.149C179.345 390.705 174.77 387.742 171.305 383.634C167.841 379.526 165.643 374.458 164.99 369.071C164.337 363.683 165.258 358.218 167.636 353.367C170.014 348.515 173.742 344.495 178.35 341.815C182.958 339.135 188.238 337.915 193.522 338.309C200.609 338.841 207.199 342.234 211.845 347.742C216.49 353.251 218.811 360.424 218.296 367.685Z" fill="#263238"/>
<path d="M211.042 367.144C210.76 371.091 209.342 374.863 206.968 377.983C204.594 381.104 201.37 383.434 197.704 384.677C194.037 385.92 190.094 386.022 186.371 384.969C182.649 383.915 179.314 381.755 176.79 378.76C174.266 375.765 172.666 372.071 172.191 368.144C171.716 364.217 172.388 360.234 174.123 356.699C175.857 353.163 178.576 350.234 181.935 348.282C185.294 346.33 189.143 345.442 192.995 345.731C195.552 345.922 198.048 346.627 200.34 347.807C202.631 348.986 204.673 350.617 206.349 352.605C208.025 354.594 209.302 356.902 210.108 359.396C210.913 361.891 211.23 364.524 211.042 367.144Z" fill="white"/>
<path d="M201.633 370.78C201.484 369.687 201.424 368.583 201.453 367.48C201.4 365.413 201.358 362.459 201.358 358.824L201.569 359.224L191.527 353.219H192.086L181.949 359.051C181.674 359.527 182.318 358.412 182.255 358.531V360.068V361.615C182.255 362.632 182.255 363.649 182.202 364.645C182.202 366.636 182.128 368.562 182.097 370.423L181.822 369.925L191.749 376.136H191.305C194.399 374.426 196.955 373.063 198.697 372.132C199.634 371.585 200.613 371.115 201.622 370.726C200.835 371.383 199.986 371.959 199.088 372.446C197.377 373.528 194.864 375.054 191.696 376.925L191.474 377.055L191.252 376.925L181.199 370.92L180.925 370.758V370.412C180.925 368.551 180.946 366.625 180.988 364.634C180.988 363.639 180.988 362.632 180.988 361.604V360.068V358.575C180.925 358.694 181.569 357.59 181.294 358.055L191.463 352.278L191.759 352.115L192.034 352.288L201.95 358.499L202.171 358.64V358.899C202.055 362.643 201.939 365.651 201.833 367.696C201.86 368.728 201.793 369.76 201.633 370.78Z" fill="#449BA7"/>
<path d="M198.199 136.99C201.849 133.25 201.849 127.187 198.199 123.448C194.55 119.708 188.632 119.708 184.983 123.448C181.333 127.187 181.333 133.25 184.983 136.99C188.632 140.729 194.55 140.729 198.199 136.99Z" fill="#449BA7"/>
<path d="M176.658 223.206C177.102 223.26 176.88 225.37 178.189 228.259C178.931 229.917 180.012 231.393 181.357 232.587C182.935 234.009 184.899 234.903 186.986 235.151C189.084 235.29 191.174 234.777 192.984 233.68C194.515 232.767 195.84 231.532 196.87 230.055C198.665 227.49 198.824 225.337 199.267 225.37C199.447 225.37 199.626 225.911 199.626 226.928C199.586 228.377 199.225 229.798 198.57 231.083C197.586 233.025 196.132 234.676 194.346 235.876C192.139 237.47 189.45 238.207 186.76 237.955C184.071 237.703 181.557 236.479 179.668 234.502C178.126 232.991 176.991 231.098 176.373 229.005C175.933 227.609 175.817 226.127 176.035 224.677C176.215 223.671 176.489 223.173 176.658 223.206Z" fill="white"/>
<path d="M266.872 251.24C266.767 251.24 267.981 249.293 269.153 245.884C270.611 241.421 271.533 236.792 271.899 232.1C272.322 227.424 272.428 222.724 272.216 218.034C272.142 216.227 272.057 214.788 271.973 213.706C271.902 213.183 271.884 212.653 271.92 212.126C272.055 212.636 272.144 213.158 272.184 213.684C272.332 214.69 272.48 216.151 272.606 218.012C272.938 222.74 272.885 227.489 272.448 232.208C272.076 236.944 271.093 241.609 269.523 246.079C269.026 247.428 268.426 248.734 267.728 249.985C267.478 250.428 267.192 250.848 266.872 251.24Z" fill="#263238"/>
<path d="M109.951 211.141C109.891 211.667 109.781 212.185 109.623 212.689C109.486 213.176 109.338 213.771 109.201 214.485C109.064 215.199 108.852 215.978 108.726 216.876C108.355 218.962 108.109 221.068 107.987 223.184C107.844 225.773 107.88 228.369 108.092 230.953C108.328 233.532 108.737 236.092 109.317 238.613C109.802 240.676 110.408 242.707 111.133 244.694C111.419 245.549 111.746 246.296 112.01 246.967C112.274 247.637 112.527 248.2 112.739 248.654C112.979 249.122 113.177 249.611 113.33 250.115C113.029 249.686 112.768 249.23 112.548 248.752C112.25 248.211 111.979 247.655 111.735 247.086C111.44 246.436 111.081 245.69 110.774 244.835C109.99 242.853 109.341 240.817 108.831 238.743C108.213 236.198 107.783 233.608 107.543 230.996C107.328 228.387 107.307 225.764 107.48 223.152C107.627 221.017 107.916 218.895 108.346 216.8C108.504 215.902 108.726 215.112 108.905 214.409C109.085 213.706 109.254 213.111 109.412 212.624C109.552 212.116 109.732 211.62 109.951 211.141Z" fill="#263238"/>
<path d="M114.745 311.216L115.146 311.335L116.329 311.746L120.828 313.369L124.08 314.559C125.273 314.97 126.593 315.36 127.998 315.803C130.817 316.658 133.996 317.773 137.608 318.638L143.236 320.12C145.2 320.629 147.27 321.008 149.403 321.484C153.627 322.479 158.263 323.161 163.131 323.962C173.659 325.441 184.269 326.219 194.896 326.288C205.522 326.224 216.133 325.447 226.66 323.962C231.496 323.161 236.101 322.49 240.388 321.484C242.5 321.019 244.612 320.64 246.555 320.131L252.194 318.649C255.795 317.783 258.974 316.669 261.793 315.814C263.198 315.371 264.518 314.981 265.711 314.57L268.963 313.38L273.462 311.757L274.645 311.345C274.778 311.292 274.916 311.252 275.056 311.226L274.666 311.4L273.504 311.865L269.037 313.585L265.711 314.862C264.528 315.284 263.208 315.684 261.804 316.15C258.984 317.037 255.816 318.173 252.205 319.071L246.566 320.586C244.612 321.105 242.532 321.495 240.399 321.982C236.175 322.999 231.528 323.691 226.671 324.513C216.121 326.03 205.485 326.822 194.832 326.883C184.183 326.814 173.55 326.019 163.004 324.503C158.157 323.691 153.5 322.988 149.276 321.971C147.164 321.484 145.052 321.094 143.109 320.575L137.47 319.06C133.859 318.162 130.691 317.026 127.871 316.139C126.467 315.673 125.157 315.273 123.964 314.851L120.722 313.607L116.255 311.886L115.094 311.421C114.971 311.364 114.855 311.295 114.745 311.216Z" fill="#263238"/>
<g opacity="0.3">
<path d="M115.104 311.335C115.104 311.335 124.281 291.859 195.159 291.004C266.038 290.149 275.215 311.335 275.215 311.335C275.215 311.335 203.681 347.463 115.104 311.335Z" fill="black"/>
</g>
<path d="M179.7 158.318C179.619 158.326 179.537 158.326 179.457 158.318L178.749 158.394C178.116 158.459 177.186 158.48 175.993 158.621C172.626 158.956 169.285 159.523 165.993 160.32C148.964 164.316 133.945 174.542 123.753 189.079C118.829 196.065 115.101 203.859 112.728 212.126C112.358 213.295 112.158 214.225 111.978 214.842L111.778 215.556C111.759 215.638 111.73 215.718 111.693 215.794C111.679 215.712 111.679 215.628 111.693 215.545C111.693 215.35 111.778 215.112 111.841 214.82C111.989 214.193 112.147 213.251 112.485 212.061C113.367 208.7 114.496 205.412 115.864 202.226C120.378 191.638 127.25 182.281 135.928 174.905C144.644 167.585 154.911 162.456 165.908 159.93C169.22 159.159 172.584 158.649 175.972 158.405C177.176 158.297 178.084 158.307 178.739 158.275H179.457C179.626 158.297 179.7 158.307 179.7 158.318Z" fill="white"/>
<path d="M113.415 241.611C112.991 240.941 112.664 240.212 112.443 239.447C111.19 235.831 110.607 232.007 110.722 228.172C110.692 227.376 110.784 226.58 110.996 225.813C111.165 225.813 110.933 229.427 111.609 233.799C112.285 238.17 113.573 241.546 113.415 241.611Z" fill="white"/>
<path d="M95.6419 236.017C95.6419 236.017 95.399 235.844 95.0716 235.432C94.605 234.85 94.2046 234.214 93.8784 233.539C92.7507 231.302 92.3192 228.765 92.6421 226.269C92.9649 223.774 94.0266 221.439 95.6841 219.581C96.1696 219.012 96.719 218.503 97.3209 218.066C97.5277 217.888 97.7636 217.749 98.0179 217.655C98.0812 217.742 97.1308 218.402 95.9798 219.819C94.4691 221.673 93.5025 223.928 93.1923 226.322C92.882 228.716 93.2407 231.151 94.2269 233.344C94.9661 235.064 95.7158 235.952 95.6419 236.017Z" fill="white"/>
<path d="M192.192 123.543C191.368 123.45 190.538 123.432 189.71 123.489C188.726 123.577 187.774 123.896 186.927 124.42C186.081 124.944 185.364 125.66 184.829 126.512C184.295 127.364 183.959 128.331 183.846 129.337C183.732 130.344 183.846 131.363 184.177 132.318C184.462 133.109 184.816 133.873 185.233 134.601C185.233 134.601 185.022 134.471 184.726 134.125C184.32 133.624 183.999 133.057 183.776 132.448C183.373 131.437 183.214 130.342 183.311 129.255C183.409 128.169 183.76 127.122 184.336 126.204C184.912 125.285 185.696 124.523 186.62 123.981C187.544 123.438 188.583 123.132 189.647 123.088C190.279 123.043 190.914 123.105 191.527 123.272C192.002 123.348 192.192 123.51 192.192 123.543Z" fill="white"/>
<path d="M284.233 222.892C284.117 223.022 282.48 221.41 280.009 220.198C277.538 218.986 275.289 218.629 275.31 218.456C277.031 218.412 278.733 218.838 280.241 219.689C281.829 220.37 283.208 221.476 284.233 222.892Z" fill="white"/>
<path d="M139.392 412.318C139.344 412.253 139.301 412.184 139.265 412.112L138.917 411.474C138.6 410.857 138.178 410.035 137.629 408.985C137.354 408.444 137.058 407.838 136.72 407.189L135.728 405.025C135.01 403.456 134.207 401.671 133.415 399.615C133.014 398.609 132.591 397.548 132.148 396.456C131.704 395.363 131.324 394.173 130.891 392.972C129.983 390.58 129.212 387.951 128.315 385.224C126.657 379.706 125.03 373.593 123.605 367.101C122.179 360.609 121.144 354.344 120.3 348.642C119.455 342.94 118.906 337.822 118.568 333.429C118.367 331.265 118.24 329.296 118.135 327.565C118.029 325.833 117.934 324.319 117.902 323.128C117.871 321.938 117.839 321.019 117.807 320.326V319.601C117.796 319.519 117.796 319.435 117.807 319.352C117.82 319.435 117.82 319.519 117.807 319.601L117.871 320.326C117.871 321.008 117.987 321.949 118.061 323.118C118.135 324.286 118.24 325.823 118.388 327.543C118.536 329.263 118.673 331.233 118.906 333.397C119.286 337.725 119.962 342.875 120.754 348.545C121.546 354.214 122.697 360.447 124.091 366.939C125.485 373.431 127.121 379.533 128.737 385.041C129.635 387.767 130.384 390.386 131.271 392.777C131.694 393.989 132.095 395.146 132.496 396.261L133.721 399.442C134.482 401.465 135.263 403.261 135.96 404.852L136.91 407.016C137.217 407.676 137.512 408.282 137.776 408.834L138.959 411.366L139.255 412.026C139.319 412.113 139.365 412.212 139.392 412.318Z" fill="white"/>
<path d="M98.0708 324.102C95.4944 324.202 92.9144 324.108 90.3514 323.821C87.7765 323.728 85.2111 323.45 82.6743 322.988C85.2507 322.888 87.8307 322.982 90.3937 323.269C92.9687 323.361 95.5342 323.639 98.0708 324.102Z" fill="white"/>
<path d="M58.3441 301.002C56.8464 298.766 55.502 296.427 54.3207 294.001C52.9819 291.664 51.8034 289.235 50.7937 286.73C52.2868 288.97 53.6276 291.313 54.8065 293.741C56.1522 296.072 57.3344 298.499 58.3441 301.002Z" fill="white"/>
<path d="M176.88 446.433C176.464 446.425 176.05 446.375 175.645 446.282C174.527 446.078 173.423 445.803 172.339 445.459C170.729 444.957 169.155 444.339 167.63 443.609C165.771 442.691 163.985 441.628 162.286 440.428C160.607 439.198 159.025 437.835 157.555 436.349C156.365 435.127 155.264 433.818 154.261 432.432C153.573 431.507 152.949 430.535 152.391 429.521C152.163 429.166 151.976 428.785 151.832 428.385C151.916 428.331 152.803 429.9 154.567 432.194C155.603 433.528 156.722 434.792 157.914 435.981C160.837 438.891 164.191 441.308 167.851 443.144C169.347 443.884 170.884 444.531 172.455 445.081C175.159 446.011 176.901 446.325 176.88 446.433Z" fill="white"/>
<path d="M193.079 396.38C192.835 396.423 192.588 396.449 192.34 396.456C191.637 396.517 190.932 396.538 190.228 396.521C187.602 396.461 184.997 396.028 182.487 395.233C180.753 394.68 179.065 393.985 177.44 393.156C175.575 392.173 173.807 391.01 172.16 389.682C168.343 386.678 165.334 382.728 163.416 378.204C161.499 373.681 160.736 368.732 161.198 363.822C161.37 361.692 161.742 359.583 162.307 357.525C162.813 355.74 163.467 354.003 164.261 352.332C165.406 349.908 166.878 347.661 168.633 345.656C169.103 345.108 169.604 344.587 170.132 344.098C170.307 343.918 170.494 343.752 170.692 343.6C170.692 343.6 169.995 344.368 168.791 345.764C167.101 347.8 165.681 350.056 164.567 352.472C162.906 356.034 161.917 359.885 161.652 363.822C161.224 368.645 161.986 373.499 163.869 377.941C165.751 382.382 168.693 386.267 172.424 389.239C174.023 390.558 175.741 391.717 177.556 392.701C179.146 393.561 180.802 394.284 182.508 394.865C184.981 395.686 187.548 396.17 190.143 396.304C192.055 396.38 193.079 396.315 193.079 396.38Z" fill="white"/>
<path d="M65.229 311.172C65.229 311.259 64.4159 310.859 63.117 310.545C61.379 310.155 59.5773 310.173 57.8472 310.599C56.1171 311.024 54.5034 311.845 53.1273 313.001C52.0713 313.899 51.5644 314.613 51.4905 314.559C51.7802 313.843 52.2285 313.206 52.7999 312.698C54.1705 311.409 55.8393 310.501 57.6484 310.058C59.4575 309.615 61.3471 309.652 63.1382 310.166C63.9014 310.332 64.617 310.677 65.229 311.172Z" fill="white"/>
<path d="M221.169 203.589C221.169 203.741 208.201 203.87 192.213 203.87C176.225 203.87 163.247 203.741 163.247 203.589C163.247 203.438 176.215 203.308 192.213 203.308C208.212 203.308 221.169 203.416 221.169 203.589Z" fill="white"/>
<path d="M171.748 271.247C171.59 271.292 171.427 271.318 171.262 271.322L169.847 271.452C169.235 271.506 168.485 271.55 167.608 271.571C166.732 271.593 165.739 271.636 164.641 271.571C162.434 271.571 159.815 271.409 156.911 271.095C153.769 270.72 150.649 270.168 147.566 269.44C144.49 268.684 141.458 267.752 138.484 266.648C136.061 265.739 133.685 264.702 131.367 263.543C130.311 263.067 129.497 262.569 128.727 262.147C127.956 261.725 127.301 261.346 126.773 261.065L125.559 260.308C125.415 260.226 125.28 260.128 125.157 260.015C125.157 260.015 125.326 260.015 125.611 260.21L126.879 260.87C127.417 261.173 128.082 261.53 128.864 261.952C129.645 262.374 130.532 262.807 131.535 263.261C133.521 264.214 135.939 265.231 138.663 266.237C144.585 268.412 150.728 269.893 156.975 270.651C159.847 270.998 162.455 271.192 164.641 271.247C165.697 271.311 166.753 271.247 167.608 271.247C168.464 271.247 169.224 271.247 169.837 271.247H171.252C171.416 271.218 171.584 271.218 171.748 271.247Z" fill="white"/>
<path d="M256.048 320.001C255.97 320.054 255.885 320.094 255.795 320.12L255.035 320.413L252.099 321.495C250.821 321.971 249.258 322.523 247.41 323.074C245.562 323.626 243.482 324.34 241.127 324.946L237.452 325.942C236.175 326.277 234.823 326.558 233.44 326.894C230.673 327.575 227.674 328.116 224.527 328.733C210.82 331.179 196.89 332.054 182.994 331.341C179.826 331.135 176.753 330.973 173.923 330.638C172.508 330.486 171.136 330.378 169.826 330.194L166.056 329.664C163.648 329.372 161.494 328.928 159.604 328.582C157.714 328.235 156.077 327.911 154.757 327.597L151.716 326.905L150.924 326.71C150.832 326.694 150.743 326.665 150.66 326.623C150.755 326.615 150.85 326.615 150.945 326.623L151.737 326.764L154.799 327.359C156.13 327.63 157.756 327.943 159.657 328.235C161.558 328.528 163.701 328.95 166.109 329.22L169.868 329.707C171.178 329.88 172.551 329.978 173.966 330.118C176.785 330.432 179.826 330.573 183.016 330.767C189.404 331.038 196.427 331.049 203.798 330.605C211.168 330.161 218.128 329.22 224.432 328.16C227.6 327.565 230.578 327.078 233.344 326.385C234.728 326.061 236.08 325.79 237.357 325.466L241.032 324.503C243.387 323.929 245.467 323.258 247.315 322.717C249.163 322.176 250.747 321.635 252.025 321.235L254.992 320.261L255.774 320.023L256.048 320.001Z" fill="white"/>
<defs>
<filter id="filter0_d_0_1" x="-821" y="-7" width="1448" height="661" filterUnits="userSpaceOnUse" color-interpolation-filters="sRGB">
<feFlood flood-opacity="0" result="BackgroundImageFix"/>
<feColorMatrix in="SourceAlpha" type="matrix" values="0 0 0 0 0 0 0 0 0 0 0 0 0 0 0 0 0 0 127 0" result="hardAlpha"/>
<feOffset dx="10" dy="10"/>
<feGaussianBlur stdDeviation="2"/>
<feComposite in2="hardAlpha" operator="out"/>
<feColorMatrix type="matrix" values="0 0 0 0 0 0 0 0 0 0 0 0 0 0 0 0 0 0 0.25 0"/>
<feBlend mode="normal" in2="BackgroundImageFix" result="effect1_dropShadow_0_1"/>
<feBlend mode="normal" in="SourceGraphic" in2="effect1_dropShadow_0_1" result="shape"/>
</filter>
</defs>
</svg>
