<svg width="100" height="100" viewBox="0 0 100 100" fill="none" xmlns="http://www.w3.org/2000/svg">
<path d="M97.5 48.8281C97.5 74.3589 76.2897 95.1562 50 95.1562C23.7103 95.1562 2.5 74.3589 2.5 48.8281C2.5 23.2974 23.7102 2.5 50 2.5C76.2897 2.5 97.5 23.2974 97.5 48.8281Z" fill="#D1E9ED" stroke="white" stroke-width="5"/>
<g clip-path="url(#clip0_65_4)">
<g clip-path="url(#clip1_65_4)">
<g clip-path="url(#clip2_65_4)">
<g clip-path="url(#clip3_65_4)">
<g clip-path="url(#clip4_65_4)">
<g clip-path="url(#clip5_65_4)">
<g clip-path="url(#clip6_65_4)">
<g clip-path="url(#clip7_65_4)">
<path d="M51.1081 22.7597C50.1922 21.538 49.8086 21.538 48.892 22.7597C48.892 22.7597 32.1615 45.0645 32.1615 58.1858C32.1621 67.8598 40.1481 75.7023 50.0004 75.7023C59.8526 75.7023 67.8386 67.8598 67.8386 58.1858C67.8386 45.0645 51.1081 22.7597 51.1081 22.7597ZM62.8565 53.2312C63.4511 53.2312 63.9331 53.7051 63.9331 54.289C63.9331 54.8717 63.4518 55.3462 62.8565 55.3462C62.2612 55.3462 61.7798 54.8723 61.7798 54.289C61.7798 53.7051 62.2612 53.2312 62.8565 53.2312ZM50.0004 71.8807C49.4842 71.8807 49.0663 71.4698 49.0663 70.9635C49.0663 70.4572 49.4842 70.0463 50.0004 70.0463C56.8244 70.0463 62.3764 64.5946 62.3764 57.8936C62.3764 57.3873 62.7948 56.9764 63.3104 56.9764C63.826 56.9764 64.2444 57.3873 64.2444 57.8936C64.2444 65.6059 57.8544 71.8807 50.0004 71.8807Z" fill="#449BA7"/>
</g>
</g>
</g>
</g>
</g>
</g>
</g>
</g>
<defs>
<clipPath id="clip0_65_4">
<rect width="68" height="78.125" fill="white" transform="translate(16 21.875)"/>
</clipPath>
<clipPath id="clip1_65_4">
<rect width="68" height="78.125" fill="white" transform="translate(16 21.875)"/>
</clipPath>
<clipPath id="clip2_65_4">
<rect width="68.042" height="78.1883" fill="white" transform="translate(15.979 21.8434)"/>
</clipPath>
<clipPath id="clip3_65_4">
<rect width="68.042" height="78.1883" fill="white" transform="translate(15.979 21.8434)"/>
</clipPath>
<clipPath id="clip4_65_4">
<rect width="68.042" height="78.1883" fill="white" transform="translate(15.979 21.8434)"/>
</clipPath>
<clipPath id="clip5_65_4">
<rect width="68.042" height="78.1883" fill="white" transform="translate(15.979 21.8434)"/>
</clipPath>
<clipPath id="clip6_65_4">
<rect width="35.6771" height="53.859" fill="white" transform="translate(32.1615 21.8434)"/>
</clipPath>
<clipPath id="clip7_65_4">
<rect width="35.6771" height="53.859" fill="white" transform="translate(32.1615 21.8434)"/>
</clipPath>
</defs>
</svg>
